<mxfile host="app.diagrams.net" agent="Mozilla/5.0 (Windows NT 10.0; Win64; x64) AppleWebKit/537.36 (KHTML, like Gecko) Chrome/130.0.0.0 Safari/537.36 Edg/130.0.0.0" version="24.7.17">
  <diagram name="Page-1" id="Ks9-2icOEn62GtIvzSAR">
    <mxGraphModel grid="1" page="1" gridSize="10" guides="1" tooltips="1" connect="1" arrows="1" fold="1" pageScale="1" pageWidth="850" pageHeight="1100" math="0" shadow="0">
      <root>
        <mxCell id="0" />
        <mxCell id="1" parent="0" />
        <mxCell id="gjLuhMMNURkh3NQxPj5C-2" value="" style="rounded=0;whiteSpace=wrap;html=1;" vertex="1" parent="1">
          <mxGeometry x="100" y="60" width="670" height="470" as="geometry" />
        </mxCell>
        <mxCell id="gjLuhMMNURkh3NQxPj5C-3" value="&lt;font style=&quot;font-size: 28px;&quot;&gt;&lt;b&gt;Aircraft&lt;/b&gt;&lt;/font&gt;" style="rounded=0;whiteSpace=wrap;html=1;" vertex="1" parent="1">
          <mxGeometry x="130" y="290" width="300" height="90" as="geometry" />
        </mxCell>
        <mxCell id="gjLuhMMNURkh3NQxPj5C-4" value="&lt;b&gt;&lt;font style=&quot;font-size: 28px;&quot;&gt;Mechanic&lt;/font&gt;&lt;/b&gt;" style="rounded=0;whiteSpace=wrap;html=1;" vertex="1" parent="1">
          <mxGeometry x="440" y="290" width="300" height="90" as="geometry" />
        </mxCell>
        <mxCell id="gjLuhMMNURkh3NQxPj5C-5" value="&lt;b&gt;&lt;font style=&quot;font-size: 28px;&quot;&gt;Mission&lt;/font&gt;&lt;/b&gt;" style="rounded=0;whiteSpace=wrap;html=1;" vertex="1" parent="1">
          <mxGeometry x="130" y="390" width="300" height="90" as="geometry" />
        </mxCell>
        <mxCell id="gjLuhMMNURkh3NQxPj5C-6" value="&lt;b&gt;&lt;font style=&quot;font-size: 28px;&quot;&gt;Pilots &amp;amp; Crews&lt;/font&gt;&lt;/b&gt;" style="rounded=0;whiteSpace=wrap;html=1;" vertex="1" parent="1">
          <mxGeometry x="440" y="390" width="300" height="90" as="geometry" />
        </mxCell>
        <mxCell id="gjLuhMMNURkh3NQxPj5C-10" value="&lt;font style=&quot;font-size: 50px;&quot;&gt;WW-II &amp;nbsp;AirForce Tracker Database&lt;/font&gt;" style="text;html=1;align=center;verticalAlign=middle;whiteSpace=wrap;rounded=0;" vertex="1" parent="1">
          <mxGeometry x="230" y="170" width="410" height="30" as="geometry" />
        </mxCell>
        <mxCell id="gjLuhMMNURkh3NQxPj5C-11" value="" style="rounded=0;whiteSpace=wrap;html=1;" vertex="1" parent="1">
          <mxGeometry x="100" y="580" width="670" height="470" as="geometry" />
        </mxCell>
        <mxCell id="gjLuhMMNURkh3NQxPj5C-12" value="&lt;b&gt;&lt;font style=&quot;font-size: 20px;&quot;&gt;Aircrafts&lt;/font&gt;&lt;/b&gt;" style="rounded=1;whiteSpace=wrap;html=1;" vertex="1" parent="1">
          <mxGeometry x="140" y="610" width="110" height="60" as="geometry" />
        </mxCell>
        <mxCell id="gjLuhMMNURkh3NQxPj5C-13" value="&lt;b&gt;Add&lt;/b&gt;" style="rounded=0;whiteSpace=wrap;html=1;" vertex="1" parent="1">
          <mxGeometry x="120" y="1000" width="90" height="30" as="geometry" />
        </mxCell>
        <mxCell id="gjLuhMMNURkh3NQxPj5C-14" value="&lt;b&gt;Remove&lt;/b&gt;" style="rounded=0;whiteSpace=wrap;html=1;" vertex="1" parent="1">
          <mxGeometry x="220" y="1000" width="90" height="30" as="geometry" />
        </mxCell>
        <mxCell id="gjLuhMMNURkh3NQxPj5C-15" value="" style="rounded=1;whiteSpace=wrap;html=1;" vertex="1" parent="1">
          <mxGeometry x="140" y="700" width="290" height="270" as="geometry" />
        </mxCell>
        <mxCell id="gjLuhMMNURkh3NQxPj5C-16" value="" style="rounded=1;whiteSpace=wrap;html=1;" vertex="1" parent="1">
          <mxGeometry x="450" y="700" width="290" height="270" as="geometry" />
        </mxCell>
        <mxCell id="gjLuhMMNURkh3NQxPj5C-17" value="" style="endArrow=none;dashed=1;html=1;rounded=0;exitX=0;exitY=0.25;exitDx=0;exitDy=0;entryX=1;entryY=0.25;entryDx=0;entryDy=0;" edge="1" parent="1" source="gjLuhMMNURkh3NQxPj5C-15" target="gjLuhMMNURkh3NQxPj5C-15">
          <mxGeometry width="50" height="50" relative="1" as="geometry">
            <mxPoint x="390" y="760" as="sourcePoint" />
            <mxPoint x="440" y="710" as="targetPoint" />
          </mxGeometry>
        </mxCell>
        <mxCell id="gjLuhMMNURkh3NQxPj5C-18" value="" style="endArrow=none;dashed=1;html=1;rounded=0;exitX=0;exitY=0.25;exitDx=0;exitDy=0;entryX=1;entryY=0.25;entryDx=0;entryDy=0;" edge="1" parent="1">
          <mxGeometry width="50" height="50" relative="1" as="geometry">
            <mxPoint x="140" y="830" as="sourcePoint" />
            <mxPoint x="430" y="830" as="targetPoint" />
          </mxGeometry>
        </mxCell>
        <mxCell id="gjLuhMMNURkh3NQxPj5C-19" value="" style="endArrow=none;dashed=1;html=1;rounded=0;exitX=0;exitY=0.25;exitDx=0;exitDy=0;entryX=1;entryY=0.25;entryDx=0;entryDy=0;" edge="1" parent="1">
          <mxGeometry width="50" height="50" relative="1" as="geometry">
            <mxPoint x="140" y="890" as="sourcePoint" />
            <mxPoint x="430" y="890" as="targetPoint" />
          </mxGeometry>
        </mxCell>
        <mxCell id="gjLuhMMNURkh3NQxPj5C-21" value="" style="endArrow=none;dashed=1;html=1;rounded=0;exitX=0;exitY=0.25;exitDx=0;exitDy=0;entryX=1;entryY=0.25;entryDx=0;entryDy=0;" edge="1" parent="1">
          <mxGeometry width="50" height="50" relative="1" as="geometry">
            <mxPoint x="140" y="940" as="sourcePoint" />
            <mxPoint x="430" y="940" as="targetPoint" />
          </mxGeometry>
        </mxCell>
        <mxCell id="gjLuhMMNURkh3NQxPj5C-24" value="List of all Aircrafts" style="text;html=1;align=center;verticalAlign=middle;whiteSpace=wrap;rounded=0;fontSize=20;" vertex="1" parent="1">
          <mxGeometry x="202.5" y="730" width="165" height="30" as="geometry" />
        </mxCell>
        <mxCell id="gjLuhMMNURkh3NQxPj5C-25" value="" style="endArrow=classic;html=1;rounded=0;" edge="1" parent="1">
          <mxGeometry width="50" height="50" relative="1" as="geometry">
            <mxPoint x="420" y="810" as="sourcePoint" />
            <mxPoint x="480" y="760" as="targetPoint" />
          </mxGeometry>
        </mxCell>
        <mxCell id="gjLuhMMNURkh3NQxPj5C-26" value="&lt;h1 style=&quot;margin-top: 0px;&quot;&gt;Details of the selected aircraft&lt;/h1&gt;" style="text;html=1;whiteSpace=wrap;overflow=hidden;rounded=0;" vertex="1" parent="1">
          <mxGeometry x="510" y="730" width="180" height="120" as="geometry" />
        </mxCell>
        <mxCell id="gjLuhMMNURkh3NQxPj5C-28" value="" style="rounded=0;whiteSpace=wrap;html=1;" vertex="1" parent="1">
          <mxGeometry x="100" y="1180" width="670" height="470" as="geometry" />
        </mxCell>
        <mxCell id="gjLuhMMNURkh3NQxPj5C-29" value="&lt;b&gt;&lt;font style=&quot;font-size: 20px;&quot;&gt;Mechanics&lt;/font&gt;&lt;/b&gt;" style="rounded=1;whiteSpace=wrap;html=1;" vertex="1" parent="1">
          <mxGeometry x="140" y="1210" width="120" height="60" as="geometry" />
        </mxCell>
        <mxCell id="gjLuhMMNURkh3NQxPj5C-30" value="&lt;b&gt;Add&lt;/b&gt;" style="rounded=0;whiteSpace=wrap;html=1;" vertex="1" parent="1">
          <mxGeometry x="120" y="1600" width="90" height="30" as="geometry" />
        </mxCell>
        <mxCell id="gjLuhMMNURkh3NQxPj5C-31" value="&lt;b&gt;Remove&lt;/b&gt;" style="rounded=0;whiteSpace=wrap;html=1;" vertex="1" parent="1">
          <mxGeometry x="220" y="1600" width="90" height="30" as="geometry" />
        </mxCell>
        <mxCell id="gjLuhMMNURkh3NQxPj5C-32" value="" style="rounded=1;whiteSpace=wrap;html=1;" vertex="1" parent="1">
          <mxGeometry x="140" y="1300" width="290" height="270" as="geometry" />
        </mxCell>
        <mxCell id="gjLuhMMNURkh3NQxPj5C-33" value="" style="rounded=1;whiteSpace=wrap;html=1;" vertex="1" parent="1">
          <mxGeometry x="450" y="1300" width="290" height="270" as="geometry" />
        </mxCell>
        <mxCell id="gjLuhMMNURkh3NQxPj5C-34" value="" style="endArrow=none;dashed=1;html=1;rounded=0;exitX=0;exitY=0.25;exitDx=0;exitDy=0;entryX=1;entryY=0.25;entryDx=0;entryDy=0;" edge="1" parent="1" source="gjLuhMMNURkh3NQxPj5C-32" target="gjLuhMMNURkh3NQxPj5C-32">
          <mxGeometry width="50" height="50" relative="1" as="geometry">
            <mxPoint x="390" y="1360" as="sourcePoint" />
            <mxPoint x="440" y="1310" as="targetPoint" />
          </mxGeometry>
        </mxCell>
        <mxCell id="gjLuhMMNURkh3NQxPj5C-35" value="" style="endArrow=none;dashed=1;html=1;rounded=0;exitX=0;exitY=0.25;exitDx=0;exitDy=0;entryX=1;entryY=0.25;entryDx=0;entryDy=0;" edge="1" parent="1">
          <mxGeometry width="50" height="50" relative="1" as="geometry">
            <mxPoint x="140" y="1430" as="sourcePoint" />
            <mxPoint x="430" y="1430" as="targetPoint" />
          </mxGeometry>
        </mxCell>
        <mxCell id="gjLuhMMNURkh3NQxPj5C-36" value="" style="endArrow=none;dashed=1;html=1;rounded=0;exitX=0;exitY=0.25;exitDx=0;exitDy=0;entryX=1;entryY=0.25;entryDx=0;entryDy=0;" edge="1" parent="1">
          <mxGeometry width="50" height="50" relative="1" as="geometry">
            <mxPoint x="140" y="1490" as="sourcePoint" />
            <mxPoint x="430" y="1490" as="targetPoint" />
          </mxGeometry>
        </mxCell>
        <mxCell id="gjLuhMMNURkh3NQxPj5C-37" value="" style="endArrow=none;dashed=1;html=1;rounded=0;exitX=0;exitY=0.25;exitDx=0;exitDy=0;entryX=1;entryY=0.25;entryDx=0;entryDy=0;" edge="1" parent="1">
          <mxGeometry width="50" height="50" relative="1" as="geometry">
            <mxPoint x="140" y="1540" as="sourcePoint" />
            <mxPoint x="430" y="1540" as="targetPoint" />
          </mxGeometry>
        </mxCell>
        <mxCell id="gjLuhMMNURkh3NQxPj5C-38" value="List of all Mechanics" style="text;html=1;align=center;verticalAlign=middle;whiteSpace=wrap;rounded=0;fontSize=20;" vertex="1" parent="1">
          <mxGeometry x="191.25" y="1330" width="187.5" height="30" as="geometry" />
        </mxCell>
        <mxCell id="gjLuhMMNURkh3NQxPj5C-39" value="" style="endArrow=classic;html=1;rounded=0;" edge="1" parent="1">
          <mxGeometry width="50" height="50" relative="1" as="geometry">
            <mxPoint x="420" y="1410" as="sourcePoint" />
            <mxPoint x="480" y="1360" as="targetPoint" />
          </mxGeometry>
        </mxCell>
        <mxCell id="gjLuhMMNURkh3NQxPj5C-40" value="&lt;h1 style=&quot;margin-top: 0px;&quot;&gt;Details of the selected Mechanic&lt;/h1&gt;" style="text;html=1;whiteSpace=wrap;overflow=hidden;rounded=0;" vertex="1" parent="1">
          <mxGeometry x="510" y="1330" width="180" height="120" as="geometry" />
        </mxCell>
        <mxCell id="gjLuhMMNURkh3NQxPj5C-41" value="" style="rounded=0;whiteSpace=wrap;html=1;" vertex="1" parent="1">
          <mxGeometry x="100" y="1700" width="670" height="470" as="geometry" />
        </mxCell>
        <mxCell id="gjLuhMMNURkh3NQxPj5C-42" value="&lt;b&gt;&lt;font style=&quot;font-size: 20px;&quot;&gt;Missions&lt;/font&gt;&lt;/b&gt;" style="rounded=1;whiteSpace=wrap;html=1;" vertex="1" parent="1">
          <mxGeometry x="140" y="1730" width="120" height="60" as="geometry" />
        </mxCell>
        <mxCell id="gjLuhMMNURkh3NQxPj5C-43" value="&lt;b&gt;Add&lt;/b&gt;" style="rounded=0;whiteSpace=wrap;html=1;" vertex="1" parent="1">
          <mxGeometry x="120" y="2120" width="90" height="30" as="geometry" />
        </mxCell>
        <mxCell id="gjLuhMMNURkh3NQxPj5C-44" value="&lt;b&gt;Remove&lt;/b&gt;" style="rounded=0;whiteSpace=wrap;html=1;" vertex="1" parent="1">
          <mxGeometry x="220" y="2120" width="90" height="30" as="geometry" />
        </mxCell>
        <mxCell id="gjLuhMMNURkh3NQxPj5C-45" value="" style="rounded=1;whiteSpace=wrap;html=1;" vertex="1" parent="1">
          <mxGeometry x="140" y="1820" width="290" height="270" as="geometry" />
        </mxCell>
        <mxCell id="gjLuhMMNURkh3NQxPj5C-46" value="" style="rounded=1;whiteSpace=wrap;html=1;" vertex="1" parent="1">
          <mxGeometry x="450" y="1820" width="290" height="270" as="geometry" />
        </mxCell>
        <mxCell id="gjLuhMMNURkh3NQxPj5C-47" value="" style="endArrow=none;dashed=1;html=1;rounded=0;exitX=0;exitY=0.25;exitDx=0;exitDy=0;entryX=1;entryY=0.25;entryDx=0;entryDy=0;" edge="1" parent="1" source="gjLuhMMNURkh3NQxPj5C-45" target="gjLuhMMNURkh3NQxPj5C-45">
          <mxGeometry width="50" height="50" relative="1" as="geometry">
            <mxPoint x="390" y="1880" as="sourcePoint" />
            <mxPoint x="440" y="1830" as="targetPoint" />
          </mxGeometry>
        </mxCell>
        <mxCell id="gjLuhMMNURkh3NQxPj5C-48" value="" style="endArrow=none;dashed=1;html=1;rounded=0;exitX=0;exitY=0.25;exitDx=0;exitDy=0;entryX=1;entryY=0.25;entryDx=0;entryDy=0;" edge="1" parent="1">
          <mxGeometry width="50" height="50" relative="1" as="geometry">
            <mxPoint x="140" y="1950" as="sourcePoint" />
            <mxPoint x="430" y="1950" as="targetPoint" />
          </mxGeometry>
        </mxCell>
        <mxCell id="gjLuhMMNURkh3NQxPj5C-49" value="" style="endArrow=none;dashed=1;html=1;rounded=0;exitX=0;exitY=0.25;exitDx=0;exitDy=0;entryX=1;entryY=0.25;entryDx=0;entryDy=0;" edge="1" parent="1">
          <mxGeometry width="50" height="50" relative="1" as="geometry">
            <mxPoint x="140" y="2010" as="sourcePoint" />
            <mxPoint x="430" y="2010" as="targetPoint" />
          </mxGeometry>
        </mxCell>
        <mxCell id="gjLuhMMNURkh3NQxPj5C-50" value="" style="endArrow=none;dashed=1;html=1;rounded=0;exitX=0;exitY=0.25;exitDx=0;exitDy=0;entryX=1;entryY=0.25;entryDx=0;entryDy=0;" edge="1" parent="1">
          <mxGeometry width="50" height="50" relative="1" as="geometry">
            <mxPoint x="140" y="2060" as="sourcePoint" />
            <mxPoint x="430" y="2060" as="targetPoint" />
          </mxGeometry>
        </mxCell>
        <mxCell id="gjLuhMMNURkh3NQxPj5C-51" value="List of all Missions" style="text;html=1;align=center;verticalAlign=middle;whiteSpace=wrap;rounded=0;fontSize=20;" vertex="1" parent="1">
          <mxGeometry x="191.25" y="1850" width="187.5" height="30" as="geometry" />
        </mxCell>
        <mxCell id="gjLuhMMNURkh3NQxPj5C-52" value="" style="endArrow=classic;html=1;rounded=0;" edge="1" parent="1">
          <mxGeometry width="50" height="50" relative="1" as="geometry">
            <mxPoint x="420" y="1930" as="sourcePoint" />
            <mxPoint x="480" y="1880" as="targetPoint" />
          </mxGeometry>
        </mxCell>
        <mxCell id="gjLuhMMNURkh3NQxPj5C-53" value="&lt;h1 style=&quot;margin-top: 0px;&quot;&gt;Details of the selected Missions&lt;/h1&gt;" style="text;html=1;whiteSpace=wrap;overflow=hidden;rounded=0;" vertex="1" parent="1">
          <mxGeometry x="510" y="1850" width="180" height="120" as="geometry" />
        </mxCell>
        <mxCell id="gjLuhMMNURkh3NQxPj5C-54" value="" style="rounded=0;whiteSpace=wrap;html=1;" vertex="1" parent="1">
          <mxGeometry x="100" y="2260" width="670" height="470" as="geometry" />
        </mxCell>
        <mxCell id="gjLuhMMNURkh3NQxPj5C-55" value="&lt;b&gt;&lt;font style=&quot;font-size: 20px;&quot;&gt;Pilots &amp;amp; Crews&lt;/font&gt;&lt;/b&gt;" style="rounded=1;whiteSpace=wrap;html=1;" vertex="1" parent="1">
          <mxGeometry x="140" y="2290" width="180" height="60" as="geometry" />
        </mxCell>
        <mxCell id="gjLuhMMNURkh3NQxPj5C-56" value="&lt;b&gt;Add&lt;/b&gt;" style="rounded=0;whiteSpace=wrap;html=1;" vertex="1" parent="1">
          <mxGeometry x="120" y="2680" width="90" height="30" as="geometry" />
        </mxCell>
        <mxCell id="gjLuhMMNURkh3NQxPj5C-57" value="&lt;b&gt;Remove&lt;/b&gt;" style="rounded=0;whiteSpace=wrap;html=1;" vertex="1" parent="1">
          <mxGeometry x="220" y="2680" width="90" height="30" as="geometry" />
        </mxCell>
        <mxCell id="gjLuhMMNURkh3NQxPj5C-58" value="" style="rounded=1;whiteSpace=wrap;html=1;" vertex="1" parent="1">
          <mxGeometry x="140" y="2380" width="290" height="270" as="geometry" />
        </mxCell>
        <mxCell id="gjLuhMMNURkh3NQxPj5C-59" value="" style="rounded=1;whiteSpace=wrap;html=1;" vertex="1" parent="1">
          <mxGeometry x="450" y="2380" width="290" height="270" as="geometry" />
        </mxCell>
        <mxCell id="gjLuhMMNURkh3NQxPj5C-60" value="" style="endArrow=none;dashed=1;html=1;rounded=0;exitX=0;exitY=0.25;exitDx=0;exitDy=0;entryX=1;entryY=0.25;entryDx=0;entryDy=0;" edge="1" parent="1" source="gjLuhMMNURkh3NQxPj5C-58" target="gjLuhMMNURkh3NQxPj5C-58">
          <mxGeometry width="50" height="50" relative="1" as="geometry">
            <mxPoint x="390" y="2440" as="sourcePoint" />
            <mxPoint x="440" y="2390" as="targetPoint" />
          </mxGeometry>
        </mxCell>
        <mxCell id="gjLuhMMNURkh3NQxPj5C-61" value="" style="endArrow=none;dashed=1;html=1;rounded=0;exitX=0;exitY=0.25;exitDx=0;exitDy=0;entryX=1;entryY=0.25;entryDx=0;entryDy=0;" edge="1" parent="1">
          <mxGeometry width="50" height="50" relative="1" as="geometry">
            <mxPoint x="140" y="2510" as="sourcePoint" />
            <mxPoint x="430" y="2510" as="targetPoint" />
          </mxGeometry>
        </mxCell>
        <mxCell id="gjLuhMMNURkh3NQxPj5C-62" value="" style="endArrow=none;dashed=1;html=1;rounded=0;exitX=0;exitY=0.25;exitDx=0;exitDy=0;entryX=1;entryY=0.25;entryDx=0;entryDy=0;" edge="1" parent="1">
          <mxGeometry width="50" height="50" relative="1" as="geometry">
            <mxPoint x="140" y="2570" as="sourcePoint" />
            <mxPoint x="430" y="2570" as="targetPoint" />
          </mxGeometry>
        </mxCell>
        <mxCell id="gjLuhMMNURkh3NQxPj5C-63" value="" style="endArrow=none;dashed=1;html=1;rounded=0;exitX=0;exitY=0.25;exitDx=0;exitDy=0;entryX=1;entryY=0.25;entryDx=0;entryDy=0;" edge="1" parent="1">
          <mxGeometry width="50" height="50" relative="1" as="geometry">
            <mxPoint x="140" y="2620" as="sourcePoint" />
            <mxPoint x="430" y="2620" as="targetPoint" />
          </mxGeometry>
        </mxCell>
        <mxCell id="gjLuhMMNURkh3NQxPj5C-64" value="List of all Pilots &amp;amp; Crews" style="text;html=1;align=center;verticalAlign=middle;whiteSpace=wrap;rounded=0;fontSize=20;" vertex="1" parent="1">
          <mxGeometry x="170.63" y="2410" width="218.75" height="30" as="geometry" />
        </mxCell>
        <mxCell id="gjLuhMMNURkh3NQxPj5C-65" value="" style="endArrow=classic;html=1;rounded=0;" edge="1" parent="1">
          <mxGeometry width="50" height="50" relative="1" as="geometry">
            <mxPoint x="420" y="2490" as="sourcePoint" />
            <mxPoint x="480" y="2440" as="targetPoint" />
          </mxGeometry>
        </mxCell>
        <mxCell id="gjLuhMMNURkh3NQxPj5C-66" value="&lt;h1 style=&quot;margin-top: 0px;&quot;&gt;Details of the selected&amp;nbsp;&lt;/h1&gt;&lt;h1 style=&quot;margin-top: 0px;&quot;&gt;Pilot / Crew&lt;/h1&gt;" style="text;html=1;whiteSpace=wrap;overflow=hidden;rounded=0;" vertex="1" parent="1">
          <mxGeometry x="510" y="2410" width="180" height="120" as="geometry" />
        </mxCell>
        <mxCell id="gjLuhMMNURkh3NQxPj5C-67" value="" style="rounded=0;whiteSpace=wrap;html=1;" vertex="1" parent="1">
          <mxGeometry x="10" y="2800" width="670" height="470" as="geometry" />
        </mxCell>
        <mxCell id="gjLuhMMNURkh3NQxPj5C-72" value="&lt;font style=&quot;font-size: 22px;&quot;&gt;Category :&amp;nbsp;&lt;/font&gt;" style="text;html=1;align=center;verticalAlign=middle;whiteSpace=wrap;rounded=0;" vertex="1" parent="1">
          <mxGeometry x="135" y="2870" width="110" height="50" as="geometry" />
        </mxCell>
        <mxCell id="gjLuhMMNURkh3NQxPj5C-73" value="" style="rounded=0;whiteSpace=wrap;html=1;" vertex="1" parent="1">
          <mxGeometry x="270" y="2877.5" width="180" height="35" as="geometry" />
        </mxCell>
        <mxCell id="gjLuhMMNURkh3NQxPj5C-74" value="" style="endArrow=classic;html=1;rounded=0;" edge="1" parent="1">
          <mxGeometry width="50" height="50" relative="1" as="geometry">
            <mxPoint x="440" y="2890" as="sourcePoint" />
            <mxPoint x="710" y="2890" as="targetPoint" />
          </mxGeometry>
        </mxCell>
        <mxCell id="gjLuhMMNURkh3NQxPj5C-75" value="Choose from the dropbox. eg. Aircraft / Maintenance / Mission / Base / Mechanic / Damage" style="text;html=1;align=center;verticalAlign=middle;whiteSpace=wrap;rounded=0;" vertex="1" parent="1">
          <mxGeometry x="720" y="2877.5" width="120" height="22.5" as="geometry" />
        </mxCell>
        <mxCell id="gjLuhMMNURkh3NQxPj5C-77" value="" style="rounded=1;whiteSpace=wrap;html=1;" vertex="1" parent="1">
          <mxGeometry x="80" y="2960" width="550" height="240" as="geometry" />
        </mxCell>
        <mxCell id="gjLuhMMNURkh3NQxPj5C-78" value="" style="endArrow=none;dashed=1;html=1;dashPattern=1 3;strokeWidth=2;rounded=0;entryX=0.891;entryY=0.192;entryDx=0;entryDy=0;entryPerimeter=0;" edge="1" parent="1">
          <mxGeometry width="50" height="50" relative="1" as="geometry">
            <mxPoint x="120" y="3034.58" as="sourcePoint" />
            <mxPoint x="580.05" y="3034.5" as="targetPoint" />
          </mxGeometry>
        </mxCell>
        <mxCell id="gjLuhMMNURkh3NQxPj5C-79" value="" style="endArrow=none;dashed=1;html=1;dashPattern=1 3;strokeWidth=2;rounded=0;entryX=0.891;entryY=0.192;entryDx=0;entryDy=0;entryPerimeter=0;" edge="1" parent="1">
          <mxGeometry width="50" height="50" relative="1" as="geometry">
            <mxPoint x="120" y="3080.08" as="sourcePoint" />
            <mxPoint x="580.05" y="3080" as="targetPoint" />
          </mxGeometry>
        </mxCell>
        <mxCell id="gjLuhMMNURkh3NQxPj5C-80" value="" style="endArrow=none;dashed=1;html=1;dashPattern=1 3;strokeWidth=2;rounded=0;entryX=0.891;entryY=0.192;entryDx=0;entryDy=0;entryPerimeter=0;" edge="1" parent="1">
          <mxGeometry width="50" height="50" relative="1" as="geometry">
            <mxPoint x="120" y="3130.08" as="sourcePoint" />
            <mxPoint x="580.05" y="3130" as="targetPoint" />
          </mxGeometry>
        </mxCell>
        <mxCell id="gjLuhMMNURkh3NQxPj5C-81" value="" style="endArrow=none;dashed=1;html=1;dashPattern=1 3;strokeWidth=2;rounded=0;entryX=0.891;entryY=0.192;entryDx=0;entryDy=0;entryPerimeter=0;" edge="1" parent="1">
          <mxGeometry width="50" height="50" relative="1" as="geometry">
            <mxPoint x="120" y="3180.08" as="sourcePoint" />
            <mxPoint x="580.05" y="3180" as="targetPoint" />
          </mxGeometry>
        </mxCell>
        <mxCell id="gjLuhMMNURkh3NQxPj5C-83" value="{Records Attributes according to the entity}" style="text;html=1;align=center;verticalAlign=middle;whiteSpace=wrap;rounded=0;" vertex="1" parent="1">
          <mxGeometry x="221.25" y="2990" width="267.5" height="30" as="geometry" />
        </mxCell>
        <mxCell id="gjLuhMMNURkh3NQxPj5C-84" value="Add to Database" style="rounded=0;whiteSpace=wrap;html=1;" vertex="1" parent="1">
          <mxGeometry x="560" y="3220" width="100" height="30" as="geometry" />
        </mxCell>
        <mxCell id="gjLuhMMNURkh3NQxPj5C-85" value="Cancel" style="rounded=0;whiteSpace=wrap;html=1;" vertex="1" parent="1">
          <mxGeometry x="480" y="3220" width="60" height="30" as="geometry" />
        </mxCell>
        <mxCell id="gjLuhMMNURkh3NQxPj5C-86" value="" style="rounded=0;whiteSpace=wrap;html=1;" vertex="1" parent="1">
          <mxGeometry x="10" y="3350" width="670" height="470" as="geometry" />
        </mxCell>
        <mxCell id="gjLuhMMNURkh3NQxPj5C-87" value="&lt;font style=&quot;font-size: 22px;&quot;&gt;Category :&amp;nbsp;&lt;/font&gt;" style="text;html=1;align=center;verticalAlign=middle;whiteSpace=wrap;rounded=0;" vertex="1" parent="1">
          <mxGeometry x="135" y="3420" width="110" height="50" as="geometry" />
        </mxCell>
        <mxCell id="gjLuhMMNURkh3NQxPj5C-88" value="" style="rounded=0;whiteSpace=wrap;html=1;" vertex="1" parent="1">
          <mxGeometry x="270" y="3427.5" width="180" height="35" as="geometry" />
        </mxCell>
        <mxCell id="gjLuhMMNURkh3NQxPj5C-89" value="" style="endArrow=classic;html=1;rounded=0;" edge="1" parent="1">
          <mxGeometry width="50" height="50" relative="1" as="geometry">
            <mxPoint x="440" y="3440" as="sourcePoint" />
            <mxPoint x="710" y="3440" as="targetPoint" />
          </mxGeometry>
        </mxCell>
        <mxCell id="gjLuhMMNURkh3NQxPj5C-90" value="Choose from the dropbox. eg. Aircraft / Maintenance / Mission / Base / Mechanic / Damage" style="text;html=1;align=center;verticalAlign=middle;whiteSpace=wrap;rounded=0;" vertex="1" parent="1">
          <mxGeometry x="720" y="3427.5" width="120" height="22.5" as="geometry" />
        </mxCell>
        <mxCell id="gjLuhMMNURkh3NQxPj5C-97" value="Remove from Database" style="rounded=0;whiteSpace=wrap;html=1;" vertex="1" parent="1">
          <mxGeometry x="520" y="3770" width="140" height="30" as="geometry" />
        </mxCell>
        <mxCell id="gjLuhMMNURkh3NQxPj5C-98" value="Cancel" style="rounded=0;whiteSpace=wrap;html=1;" vertex="1" parent="1">
          <mxGeometry x="440" y="3770" width="60" height="30" as="geometry" />
        </mxCell>
        <mxCell id="gjLuhMMNURkh3NQxPj5C-99" value="&lt;font style=&quot;font-size: 18px;&quot;&gt;ID # :&lt;/font&gt;" style="text;html=1;align=center;verticalAlign=middle;whiteSpace=wrap;rounded=0;" vertex="1" parent="1">
          <mxGeometry x="112.5" y="3530" width="80" height="30" as="geometry" />
        </mxCell>
        <mxCell id="gjLuhMMNURkh3NQxPj5C-100" value="" style="rounded=0;whiteSpace=wrap;html=1;" vertex="1" parent="1">
          <mxGeometry x="192.5" y="3530" width="97.5" height="30" as="geometry" />
        </mxCell>
        <mxCell id="gjLuhMMNURkh3NQxPj5C-101" value="" style="endArrow=classic;html=1;rounded=0;" edge="1" parent="1">
          <mxGeometry width="50" height="50" relative="1" as="geometry">
            <mxPoint x="280" y="3540" as="sourcePoint" />
            <mxPoint x="710" y="3540" as="targetPoint" />
          </mxGeometry>
        </mxCell>
        <mxCell id="gjLuhMMNURkh3NQxPj5C-102" value="Enter ID&amp;nbsp;" style="text;html=1;align=center;verticalAlign=middle;whiteSpace=wrap;rounded=0;" vertex="1" parent="1">
          <mxGeometry x="730" y="3530" width="60" height="30" as="geometry" />
        </mxCell>
        <mxCell id="gjLuhMMNURkh3NQxPj5C-103" value="Text" style="text;html=1;align=center;verticalAlign=middle;whiteSpace=wrap;rounded=0;" vertex="1" parent="1">
          <mxGeometry x="380" y="3470" width="60" height="30" as="geometry" />
        </mxCell>
        <mxCell id="gjLuhMMNURkh3NQxPj5C-104" value="&lt;h1 style=&quot;margin-top: 0px;&quot;&gt;&lt;font color=&quot;#ff2600&quot;&gt;* Warning ! *&lt;/font&gt;&lt;/h1&gt;&lt;h1 style=&quot;margin-top: 0px;&quot;&gt;&lt;span style=&quot;color: rgb(255, 38, 0); font-size: 12px; font-weight: normal;&quot;&gt;Once removed, information will be lost&lt;/span&gt;&lt;/h1&gt;" style="text;html=1;whiteSpace=wrap;overflow=hidden;rounded=0;" vertex="1" parent="1">
          <mxGeometry x="25" y="3710" width="335" height="120" as="geometry" />
        </mxCell>
      </root>
    </mxGraphModel>
  </diagram>
</mxfile>
